HIERARCHY
ROOT hip
{
  OFFSET 0 0 0
  CHANNELS 6 Xposition Yposition Zposition Zrotation Yrotation Xrotation
  JOINT abdomen
  {
    OFFSET 0 20.6881 -0.73152
    CHANNELS 3 Zrotation Xrotation Yrotation
    JOINT chest
    {
      OFFSET 0 11.7043 -0.48768
      CHANNELS 3 Zrotation Xrotation Yrotation
      JOINT neck
      {
        OFFSET 0 22.1894 -2.19456
        CHANNELS 3 Zrotation Xrotation Yrotation
        JOINT head
        {
          OFFSET -0.24384 7.07133 1.2192
          CHANNELS 3 Zrotation Xrotation Yrotation
          JOINT leftEye
          {
            OFFSET 4.14528 8.04674 8.04672
            CHANNELS 3 Zrotation Xrotation Yrotation
            End Site
            {
              OFFSET 1 0 0
            }
          }
          JOINT rightEye
          {
            OFFSET -3.6576 8.04674 8.04672
            CHANNELS 3 Zrotation Xrotation Yrotation
            End Site
            {
              OFFSET 1 0 0
            }
          }
        }
      }
      JOINT rCollar
      {
        OFFSET -2.68224 19.2634 -4.8768
        CHANNELS 3 Zrotation Xrotation Yrotation
        JOINT rShldr
        {
          OFFSET -8.77824 -1.95073 1.46304
          CHANNELS 3 Zrotation Xrotation Yrotation
          JOINT rForeArm
          {
            OFFSET -28.1742 -1.7115 0.48768
            CHANNELS 3 Zrotation Xrotation Yrotation
            JOINT rHand
            {
              OFFSET -22.5879 0.773209 7.07136
              CHANNELS 3 Zrotation Xrotation Yrotation
              JOINT rThumb1
              {
                OFFSET -1.2192 -0.487915 3.41376
                CHANNELS 3 Zrotation Xrotation Yrotation
                JOINT rThumb2
                {
                  OFFSET -3.37035 -0.52449 3.41376
                  CHANNELS 3 Zrotation Xrotation Yrotation
                  End Site
                  {
                    OFFSET -1.78271 -1.18214 1.43049
                  }
                }
              }
              JOINT rIndex1
              {
                OFFSET -7.75947 0.938293 5.60832
                CHANNELS 3 Zrotation Xrotation Yrotation
                JOINT rIndex2
                {
                  OFFSET -2.54057 -0.884171 1.56538
                  CHANNELS 3 Zrotation Xrotation Yrotation
                  End Site
                  {
                    OFFSET -1.62519 -0.234802 1.16502
                  }
                }
              }
              JOINT rMid1
              {
                OFFSET -8.24714 1.18213 3.41376
                CHANNELS 3 Zrotation Xrotation Yrotation
                JOINT rMid2
                {
                  OFFSET -3.10165 -0.590103 1.0647
                  CHANNELS 3 Zrotation Xrotation Yrotation
                  End Site
                  {
                    OFFSET -2.48547 -0.328903 0.83742
                  }
                }
              }
              JOINT rRing1
              {
                OFFSET -8.82822 0.546677 1.51678
                CHANNELS 3 Zrotation Xrotation Yrotation
                JOINT rRing2
                {
                  OFFSET -2.60934 -0.819778 -0.0198488
                  CHANNELS 3 Zrotation Xrotation Yrotation
                  End Site
                  {
                    OFFSET -2.33842 -0.294052 0.168128
                  }
                }
              }
              JOINT rPinky1
              {
                OFFSET -8.27202 -0.0477905 -0.4584
                CHANNELS 3 Zrotation Xrotation Yrotation
                JOINT rPinky2
                {
                  OFFSET -1.82734 -0.647385 -0.700984
                  CHANNELS 3 Zrotation Xrotation Yrotation
                  End Site
                  {
                    OFFSET -1.69225 -0.51767 -0.607171
                  }
                }
              }
            }
          }
        }
      }
      JOINT lCollar
      {
        OFFSET 2.68224 19.2634 -4.8768
        CHANNELS 3 Zrotation Xrotation Yrotation
        JOINT lShldr
        {
          OFFSET 8.77824 -1.95073 1.46304
          CHANNELS 3 Zrotation Xrotation Yrotation
          JOINT lForeArm
          {
            OFFSET 28.1742 -1.7115 0.48768
            CHANNELS 3 Zrotation Xrotation Yrotation
            JOINT lHand
            {
              OFFSET 22.5879 0.773209 7.07136
              CHANNELS 3 Zrotation Xrotation Yrotation
              JOINT lThumb1
              {
                OFFSET 1.2192 -0.487915 3.41376
                CHANNELS 3 Zrotation Xrotation Yrotation
                JOINT lThumb2
                {
                  OFFSET 3.37035 -0.52449 3.41376
                  CHANNELS 3 Zrotation Xrotation Yrotation
                  End Site
                  {
                    OFFSET 1.78271 -1.18214 1.43049
                  }
                }
              }
              JOINT lIndex1
              {
                OFFSET 7.75947 0.938293 5.60832
                CHANNELS 3 Zrotation Xrotation Yrotation
                JOINT lIndex2
                {
                  OFFSET 2.54057 -0.884171 1.56538
                  CHANNELS 3 Zrotation Xrotation Yrotation
                  End Site
                  {
                    OFFSET 1.62519 -0.234802 1.16502
                  }
                }
              }
              JOINT lMid1
              {
                OFFSET 8.24714 1.18213 3.41376
                CHANNELS 3 Zrotation Xrotation Yrotation
                JOINT lMid2
                {
                  OFFSET 3.10165 -0.590103 1.0647
                  CHANNELS 3 Zrotation Xrotation Yrotation
                  End Site
                  {
                    OFFSET 2.48547 -0.328903 0.83742
                  }
                }
              }
              JOINT lRing1
              {
                OFFSET 8.82822 0.546677 1.51678
                CHANNELS 3 Zrotation Xrotation Yrotation
                JOINT lRing2
                {
                  OFFSET 2.60934 -0.819778 -0.0198488
                  CHANNELS 3 Zrotation Xrotation Yrotation
                  End Site
                  {
                    OFFSET 2.33842 -0.294052 0.168128
                  }
                }
              }
              JOINT lPinky1
              {
                OFFSET 8.27202 -0.0477905 -0.4584
                CHANNELS 3 Zrotation Xrotation Yrotation
                JOINT lPinky2
                {
                  OFFSET 1.82734 -0.647385 -0.700984
                  CHANNELS 3 Zrotation Xrotation Yrotation
                  End Site
                  {
                    OFFSET 1.69225 -0.51767 -0.607171
                  }
                }
              }
            }
          }
        }
      }
    }
  }
  JOINT rButtock
  {
    OFFSET -8.77824 4.35084 1.2192
    CHANNELS 3 Zrotation Xrotation Yrotation
    JOINT rThigh
    {
      OFFSET 0 -1.70687 -2.19456
      CHANNELS 3 Zrotation Xrotation Yrotation
      JOINT rShin
      {
        OFFSET 0 -36.8199 0.73152
        CHANNELS 3 Zrotation Xrotation Yrotation
        JOINT rFoot
        {
          OFFSET 0.73152 -45.1104 -5.12064
          CHANNELS 3 Zrotation Xrotation Yrotation
          End Site
          {
            OFFSET -1.1221 -3.69964 12.103
          }
        }
      }
    }
  }
  JOINT lButtock
  {
    OFFSET 8.77824 4.35084 1.2192
    CHANNELS 3 Zrotation Xrotation Yrotation
    JOINT lThigh
    {
      OFFSET 0 -1.70687 -2.19456
      CHANNELS 3 Zrotation Xrotation Yrotation
      JOINT lShin
      {
        OFFSET 0 -36.8199 0.73152
        CHANNELS 3 Zrotation Xrotation Yrotation
        JOINT lFoot
        {
          OFFSET -0.73152 -45.1104 -5.12064
          CHANNELS 3 Zrotation Xrotation Yrotation
          End Site
          {
            OFFSET 1.1221 -3.69964 12.103
          }
        }
      }
    }
  }
}
MOTION
Frames:	6
Frame Time:	0.00833333
6.94425 122.403 30.5838 201.437 -80.5265 161.084 -1.68119 21.3883 -0.528952 0.659211 -6.40405 -0.403733 13.1415 12.8802 11.6973 -38.3962 -6.41177 18.4395 -0.0 0.0 0.0 -0.0 0.0 0.0 1.29904e-13 -9.77921e-13 -6.17059e-13 93.2996 13.7219 -39.8341 -27.1429 -26.8442 62.355 -0.799448 -24.6105 -3.68847 -9.59823e-12 3.73265e-09 -2.03276e-09 2.87867e-11 6.44021e-09 -3.51938e-09 -9.59599e-12 3.73265e-09 -2.03277e-09 7.73091 5.47488 0.417314 -9.59618e-12 3.73265e-09 -2.03275e-09 2.90554 0.965183 0.102902 -9.59305e-12 3.73265e-09 -2.03276e-09 10.2786 0.731801 0.0259123 -9.60262e-12 3.73265e-09 -2.03275e-09 2.22167 -0.733487 -0.20892 1.29687e-13 -9.77918e-13 -6.17279e-13 -71.6314 27.5548 1.18133 28.3573 -33.5757 -73.0054 0.415476 -17.887 2.60158 1.44412e-09 -1.70566e-09 3.71593e-09 2.44895e-09 -2.94093e-09 6.43803e-09 1.44411e-09 -1.70565e-09 3.71595e-09 -7.73091 5.47488 -0.417314 1.44412e-09 -1.70565e-09 3.71593e-09 -2.90554 0.965183 -0.102902 1.4441e-09 -1.70565e-09 3.71594e-09 -10.2786 0.731801 -0.0259123 1.44412e-09 -1.70565e-09 3.71592e-09 -2.22167 -0.733487 0.20892 -2.03217e-16 0.0 -3.88251e-19 -8.12891 -25.1608 -23.2425 -1.64959 66.5122 1.96532 2.40392 19.5819 -10.6076 2.03217e-16 0.0 3.88251e-19 12.0308 -20.4725 -1.90984 0.319092 39.5209 -0.503039 -0.704316 7.11925 19.1552
6.71841 122.095 31.6637 235.207 -88.2254 127.311 -1.67672 20.5117 -1.4027 1.21538 -6.45961 -0.585695 14.0621 11.7433 10.7728 -38.1908 -3.58116 17.3843 -0.0 0.0 0.0 -0.0 0.0 0.0 4.19952e-14 -1.11913e-12 -3.12752e-13 92.35 12.4424 -41.2072 -26.9309 -26.1145 61.1707 -0.89617 -25.8855 -3.9093 6.53157e-11 1.60557e-09 -1.12907e-09 1.36979e-10 2.76819e-09 -1.95191e-09 6.53186e-11 1.60557e-09 -1.12907e-09 7.73091 5.47488 0.417314 6.53179e-11 1.60557e-09 -1.12906e-09 2.90554 0.965183 0.102902 6.53211e-11 1.60557e-09 -1.12906e-09 10.2786 0.731801 0.0259123 6.53097e-11 1.60557e-09 -1.12905e-09 2.22167 -0.733487 -0.20892 4.17208e-14 -1.11913e-12 -3.12957e-13 -68.9206 24.5112 1.89788 28.3724 -33.7913 -73.3559 0.410955 -17.8462 2.59455 5.8078e-10 2.56052e-10 2.46539e-09 9.69888e-10 4.69997e-10 4.26767e-09 5.80764e-10 2.56059e-10 2.46541e-09 -7.73091 5.47488 -0.417314 5.80782e-10 2.56053e-10 2.46538e-09 -2.90554 0.965183 -0.102902 5.80763e-10 2.56062e-10 2.4654e-09 -10.2786 0.731801 -0.0259123 5.80788e-10 2.56056e-10 2.46538e-09 -2.22167 -0.733487 0.20892 -2.03217e-16 0.0 -3.88251e-19 -9.20244 -24.6703 -24.1487 -1.44858 64.5883 1.78441 2.1843 18.0459 -10.8827 2.03217e-16 0.0 3.88251e-19 12.2663 -19.2217 -0.987834 0.331291 40.1585 -0.536055 -1.34922 9.78237 16.4231
6.64281 121.457 32.7159 180.717 -95.9725 182.343 -1.69863 19.5769 -2.08475 1.69493 -6.49279 -0.721346 14.3068 10.8845 10.1792 -36.9954 -1.65531 16.824 -0.0 0.0 0.0 -0.0 0.0 0.0 -2.34594e-14 -1.15262e-12 -8.24956e-15 91.0497 11.7823 -42.2443 -26.6744 -25.3055 59.7714 -0.942509 -26.4491 -4.00913 3.06501e-10 -2.04627e-10 -2.0429e-10 5.31806e-10 -3.63979e-10 -3.45442e-10 3.06504e-10 -2.04627e-10 -2.04293e-10 7.73091 5.47488 0.417314 3.06502e-10 -2.04619e-10 -2.04281e-10 2.90554 0.965183 0.102902 3.06506e-10 -2.04628e-10 -2.04285e-10 10.2786 0.731801 0.0259123 3.06494e-10 -2.04626e-10 -2.04277e-10 2.22167 -0.733487 -0.20892 -2.37535e-14 -1.15262e-12 -8.44835e-15 -66.4621 21.1009 2.98152 28.3829 -33.9672 -73.6462 0.423599 -18.1859 2.64624 -3.2775e-10 9.4604e-10 9.07126e-10 -5.79529e-10 1.63846e-09 1.56447e-09 -3.27769e-10 9.4605e-10 9.07151e-10 -7.73091 5.47488 -0.417314 -3.27748e-10 9.46042e-10 9.07123e-10 -2.90554 0.965183 -0.102902 -3.27769e-10 9.46053e-10 9.07145e-10 -10.2786 0.731801 -0.0259123 -3.27742e-10 9.46045e-10 9.07113e-10 -2.22167 -0.733487 0.20892 -2.03217e-16 0.0 -3.88251e-19 -10.3921 -24.2105 -24.4069 -1.23309 62.0645 1.58869 1.99524 16.8794 -10.9448 2.03217e-16 0.0 3.88251e-19 12.4452 -17.6773 -0.120935 0.335394 40.3435 -0.566056 -1.67562 11.6571 14.5595
6.55179 120.611 33.8912 187.04 -102.076 176.548 -1.83152 18.569 -2.52828 2.09874 -6.50561 -0.798862 13.6544 10.4697 10.1124 -34.4095 -1.10609 17.0377 -0.0 0.0 0.0 -0.0 0.0 0.0 -7.0609e-14 -1.03794e-12 4.04378e-13 89.3815 12.0103 -42.9185 -26.3333 -24.321 58.094 -0.903788 -25.9719 -3.92478 1.02924e-09 -1.74434e-09 1.08838e-09 1.7498e-09 -3.04567e-09 1.90596e-09 1.02924e-09 -1.74434e-09 1.08837e-09 7.73091 5.47488 0.417314 1.02924e-09 -1.74434e-09 1.08838e-09 2.90554 0.965183 0.102902 1.02925e-09 -1.74434e-09 1.08838e-09 10.2786 0.731801 0.0259123 1.02924e-09 -1.74434e-09 1.08839e-09 2.22167 -0.733487 -0.20892 -7.08612e-14 -1.03794e-12 4.04172e-13 -64.2028 16.9411 4.50908 28.3916 -34.1295 -73.9147 0.466973 -19.1206 2.79152 -1.61098e-09 9.41775e-10 -1.64434e-09 -2.75598e-09 1.51728e-09 -2.86028e-09 -1.611e-09 9.41784e-10 -1.64431e-09 -7.73091 5.47488 -0.417314 -1.61098e-09 9.41777e-10 -1.64434e-09 -2.90554 0.965183 -0.102902 -1.611e-09 9.41788e-10 -1.64432e-09 -10.2786 0.731801 -0.0259123 -1.61097e-09 9.41782e-10 -1.64435e-09 -2.22167 -0.733487 0.20892 -2.03217e-16 0.0 -3.88251e-19 -11.9023 -23.845 -24.0475 -1.012 58.7992 1.38717 1.85027 16.0906 -10.7761 2.03217e-16 0.0 3.88251e-19 12.4984 -15.665 0.670528 0.326442 39.9106 -0.59358 -1.83166 12.293 14.0846
6.42305 119.566 35.1423 189.767 -107.936 174.22 -2.10879 17.4464 -2.75071 2.46395 -6.51373 -0.821706 12.3691 10.2647 10.4352 -30.6251 -1.4951 17.8779 -0.0 0.0 0.0 -0.0 0.0 0.0 -1.1399e-13 -8.17431e-13 9.32698e-13 87.4732 12.8284 -43.3546 -25.9014 -23.18 56.2449 -0.816359 -24.8216 -3.72525 2.07616e-09 -3.29024e-09 2.75104e-09 3.5191e-09 -5.74827e-09 4.80347e-09 2.07616e-09 -3.29024e-09 2.75103e-09 7.73091 5.47488 0.417314 2.07616e-09 -3.29024e-09 2.75104e-09 2.90554 0.965183 0.102902 2.07616e-09 -3.29024e-09 2.75104e-09 10.2786 0.731801 0.0259123 2.07616e-09 -3.29023e-09 2.75105e-09 2.22167 -0.733487 -0.20892 -1.1416e-13 -8.17434e-13 9.32474e-13 -61.809 12.265 6.30934 28.3996 -34.3076 -74.2124 0.532679 -20.375 2.9902 -3.24289e-09 7.22328e-10 -5.07757e-09 -5.51887e-09 9.64287e-10 -8.81343e-09 -3.2429e-09 7.22335e-10 -5.07755e-09 -7.73091 5.47488 -0.417314 -3.24289e-09 7.2233e-10 -5.07757e-09 -2.90554 0.965183 -0.102902 -3.24291e-09 7.22338e-10 -5.07756e-09 -10.2786 0.731801 -0.0259123 -3.24289e-09 7.22336e-10 -5.07758e-09 -2.22167 -0.733487 0.20892 -2.03217e-16 0.0 -3.88251e-19 -13.7239 -23.4944 -23.3646 -0.801009 54.8202 1.19242 1.74702 15.4951 -10.5369 2.03217e-16 0.0 3.88251e-19 12.3878 -13.2657 1.41778 0.305438 38.9791 -0.616662 -1.93484 12.2703 14.2655
6.49157 118.204 36.4237 189.973 -113.933 174.81 -2.28136 16.2802 -2.85778 2.76139 -6.50094 -0.813812 10.8189 10.0891 10.7883 -26.5688 -2.14294 18.7381 -0.0 0.0 0.0 -0.0 0.0 0.0 -1.33366e-13 -5.50372e-13 1.32819e-12 85.3745 13.7879 -43.5182 -25.3939 -21.9625 54.3254 -0.723634 -23.4645 -3.49625 2.8559e-09 -4.53039e-09 4.00179e-09 4.83642e-09 -7.91716e-09 6.98285e-09 2.8559e-09 -4.53039e-09 4.00179e-09 7.73091 5.47488 0.417314 2.85589e-09 -4.53039e-09 4.0018e-09 2.90554 0.965183 0.102902 2.8559e-09 -4.53039e-09 4.00179e-09 10.2786 0.731801 0.0259123 2.8559e-09 -4.53038e-09 4.0018e-09 2.22167 -0.733487 -0.20892 -1.33449e-13 -5.50376e-13 1.32795e-12 -59.291 7.77514 8.30214 28.4045 -34.4253 -74.4086 0.609686 -21.6725 3.20043 -4.50161e-09 -1.3709e-09 -7.9338e-09 -7.64612e-09 -2.80776e-09 -1.37652e-08 -4.50162e-09 -1.3709e-09 -7.93379e-09 -7.73091 5.47488 -0.417314 -4.50161e-09 -1.3709e-09 -7.9338e-09 -2.90554 0.965183 -0.102902 -4.50162e-09 -1.3709e-09 -7.9338e-09 -10.2786 0.731801 -0.0259123 -4.5016e-09 -1.3709e-09 -7.93381e-09 -2.22167 -0.733487 0.20892 -2.03217e-16 0.0 -3.88251e-19 -15.463 -23.0536 -22.093 -0.618629 50.4246 1.02253 1.69508 15.206 -10.1455 2.03217e-16 0.0 3.88251e-19 12.2649 -10.8173 2.1433 0.27973 37.8318 -0.633754 -2.00568 12.0759 14.4892
